<svg width="25" height="25" viewBox="0 0 25 25" fill="none" xmlns="http://www.w3.org/2000/svg">
  <path d="M18.24 23.25H6.76C4.27 23.25 2.25 21.23 2.25 18.74V12.01C2.25 9.52001 4.27 7.5 6.76 7.5H18.24C20.73 7.5 22.75 9.52001 22.75 12.01V13.45C22.75 13.86 22.41 14.2 22 14.2H19.98C19.63 14.2 19.31 14.33 19.08 14.57L19.07 14.58C18.79 14.85 18.66 15.22 18.69 15.6C18.75 16.26 19.38 16.79 20.1 16.79H22C22.41 16.79 22.75 17.13 22.75 17.54V18.73C22.75 21.23 20.73 23.25 18.24 23.25ZM6.76 9C5.1 9 3.75 10.35 3.75 12.01V18.74C3.75 20.4 5.1 21.75 6.76 21.75H18.24C19.9 21.75 21.25 20.4 21.25 18.74V18.3H20.1C18.59 18.3 17.31 17.18 17.19 15.74C17.11 14.92 17.41 14.11 18.01 13.52C18.53 12.99 19.23 12.7 19.98 12.7H21.25V12.01C21.25 10.35 19.9 9 18.24 9H6.76Z" fill="#EAAE44"/>
  <path d="M3 13.66C2.59 13.66 2.25 13.32 2.25 12.91V8.34006C2.25 6.85006 3.19 5.50001 4.58 4.97001L12.52 1.97001C13.34 1.66001 14.25 1.77005 14.96 2.27005C15.68 2.77005 16.1 3.58005 16.1 4.45005V8.25003C16.1 8.66003 15.76 9.00003 15.35 9.00003C14.94 9.00003 14.6 8.66003 14.6 8.25003V4.45005C14.6 4.07005 14.42 3.72003 14.1 3.50003C13.78 3.28003 13.4 3.23003 13.04 3.37003L5.1 6.37003C4.29 6.68003 3.74 7.47006 3.74 8.34006V12.91C3.75 13.33 3.41 13.66 3 13.66Z" fill="#EAAE44"/>
  <path d="M20.1 18.2999C18.59 18.2999 17.31 17.1799 17.19 15.7399C17.11 14.9099 17.41 14.0999 18.01 13.5099C18.52 12.9899 19.22 12.7 19.97 12.7H22.05C23.04 12.73 23.8 13.5099 23.8 14.4699V16.53C23.8 17.49 23.04 18.2699 22.08 18.2999H20.1ZM22.03 14.2H19.98C19.63 14.2 19.31 14.3299 19.08 14.5699C18.79 14.8499 18.65 15.2299 18.69 15.6099C18.75 16.2699 19.38 16.7999 20.1 16.7999H22.06C22.19 16.7999 22.31 16.68 22.31 16.53V14.4699C22.31 14.3199 22.19 14.21 22.03 14.2Z" fill="#EAAE44"/>
  <path d="M14.5 13.25H7.5C7.09 13.25 6.75 12.91 6.75 12.5C6.75 12.09 7.09 11.75 7.5 11.75H14.5C14.91 11.75 15.25 12.09 15.25 12.5C15.25 12.91 14.91 13.25 14.5 13.25Z" fill="#EAAE44"/>
</svg>
