<svg width="180" height="389" viewBox="0 0 180 389" fill="none" xmlns="http://www.w3.org/2000/svg">
<path opacity="0.2" d="M21.3451 9.48948C21.3202 9.4289 21.2746 9.37344 21.2096 9.3201C20.5906 8.81117 18.1954 8.48639 14.966 5.93144C11.3961 3.10658 9.35989 0.131224 9.35989 0.131224C9.35989 0.131224 9.27855 4.98538 11.91 8.99016C9.97466 8.80641 6.03156 7.75385 6.12551 8.13138C6.21946 8.50891 11.3869 14.4671 11.3869 14.4671C11.3869 14.4671 5.06053 15.1837 4.99723 15.6441C4.93296 16.1042 11.2637 19.0712 11.2637 19.0712C11.2637 19.0712 7.83893 23.8397 7.91415 24.0609C7.98937 24.2822 12.613 23.5202 13.8837 24.4674C15.1548 25.4137 16.4902 26.3027 11.11 35.7463C17.5815 31.7882 19.747 30.5014 20.7782 30.9679C21.8104 31.4348 22.8451 35.1841 22.2266 37.4043C24.8045 35.0591 25.4745 32.965 26.6138 33.6251C27.7532 34.2851 29.0391 39.1945 29.0391 39.1945C29.0391 39.1945 31.368 34.2709 33.7613 33.4764C36.6174 38.2132 42.0656 41.8082 41.9808 41.7108C41.8964 41.6123 36.079 25.8007 36.2238 22.1573C33.2688 24.6643 27.715 28.1543 25.8052 27.1985C23.8953 26.2428 28.5614 19.9118 28.5614 19.9118C28.5614 19.9118 24.1003 22.2009 24.2707 21.5307C24.4412 20.8606 26.6178 16.5089 26.4919 16.5623C26.366 16.6158 19.306 19.494 17.7423 18.8079C16.1786 18.1217 21.3447 9.49048 21.3447 9.49048L21.3451 9.48948Z" fill="#0C0029"/>
<path opacity="0.5" d="M170.591 373.084C170.603 373.054 170.626 373.027 170.657 373.001C170.96 372.754 172.131 372.593 173.711 371.349C175.459 369.974 176.457 368.527 176.457 368.527C176.457 368.527 176.491 370.883 175.2 372.829C176.146 372.738 178.073 372.222 178.027 372.405C177.98 372.589 175.449 375.487 175.449 375.487C175.449 375.487 178.538 375.827 178.568 376.05C178.599 376.273 175.503 377.721 175.503 377.721C175.503 377.721 177.17 380.031 177.133 380.138C177.096 380.246 174.838 379.882 174.217 380.343C173.594 380.804 172.941 381.237 175.557 385.813C172.401 383.9 171.345 383.279 170.841 383.506C170.336 383.734 169.826 385.555 170.125 386.632C168.869 385.497 168.544 384.482 167.987 384.803C167.43 385.125 166.795 387.509 166.795 387.509C166.795 387.509 165.664 385.123 164.496 384.74C163.095 387.043 160.429 388.794 160.471 388.747C160.512 388.699 163.374 381.018 163.308 379.25C164.748 380.463 167.456 382.15 168.39 381.684C169.324 381.217 167.053 378.151 167.053 378.151C167.053 378.151 169.229 379.256 169.147 378.931C169.064 378.606 168.007 376.497 168.068 376.523C168.13 376.549 171.574 377.936 172.339 377.601C173.104 377.266 170.591 373.084 170.591 373.084L170.591 373.084Z" fill="#0C0029"/>
</svg>
