<svg width="99" height="50" viewBox="0 0 99 50" fill="none" xmlns="http://www.w3.org/2000/svg">
<path opacity="0.5" d="M84.3417 26.9048C84.3571 26.8677 84.3853 26.8334 84.4256 26.8003C84.8092 26.4841 86.2948 26.2603 88.2963 24.6715C90.5087 22.915 91.7696 21.0839 91.7696 21.0839C91.7696 21.0839 91.8237 24.0337 90.1944 26.4971C91.3948 26.3641 93.8402 25.6807 93.7822 25.9113C93.7242 26.1418 90.5231 29.8206 90.5231 29.8206C90.5231 29.8206 94.4482 30.1864 94.4878 30.4656C94.5281 30.7446 90.603 32.618 90.603 32.618C90.603 32.618 92.7313 35.4788 92.6848 35.6141C92.6383 35.7495 89.7694 35.3373 88.9819 35.9271C88.1941 36.5163 87.3663 37.0715 90.7112 42.7526C86.6935 40.418 85.3491 39.6597 84.7098 39.9547C84.0699 40.2499 83.4308 42.5404 83.8162 43.8832C82.2152 42.486 81.798 41.2205 81.0917 41.6343C80.3854 42.0481 79.5914 45.0465 79.5914 45.0465C79.5914 45.0465 78.1429 42.0793 76.6576 41.6228C74.8895 44.5337 71.5124 46.7791 71.5649 46.7189C71.6172 46.6582 75.2139 36.9825 75.1214 34.7694C76.9564 36.2607 80.4044 38.3209 81.5884 37.7188C82.7725 37.1168 79.873 33.3198 79.873 33.3198C79.873 33.3198 82.6422 34.6621 82.536 34.2566C82.4297 33.8511 81.0761 31.2298 81.1543 31.2609C81.2324 31.292 85.6143 32.9637 86.5838 32.5294C87.5534 32.0951 84.3419 26.9054 84.3419 26.9054L84.3417 26.9048Z" fill="#0C0029"/>
<path opacity="0.14" d="M11.9958 4.63409C11.9833 4.60476 11.9608 4.57796 11.9288 4.55224C11.6238 4.30686 10.4523 4.15539 8.86194 2.92382C7.10394 1.56215 6.09428 0.123518 6.09428 0.123518C6.09428 0.123518 6.07919 2.47931 7.38479 4.41597C6.43859 4.33176 4.5073 3.83109 4.5551 4.01406C4.60291 4.19702 7.15714 7.07511 7.15714 7.07511C7.15714 7.07511 4.07073 7.43908 4.04215 7.66267C4.01309 7.8861 7.12032 9.30969 7.12032 9.30969C7.12032 9.30969 5.47173 11.6325 5.5096 11.7396C5.54746 11.8468 7.80192 11.4652 8.4274 11.9216C9.05304 12.3775 9.7098 12.8055 7.12986 17.402C10.2707 15.4647 11.3219 14.8347 11.8279 15.0584C12.3344 15.2823 12.8589 17.0991 12.568 18.1781C13.8153 17.0334 14.1319 16.0155 14.6917 16.3329C15.2516 16.6503 15.9046 19.0294 15.9046 19.0294C15.9046 19.0294 17.0171 16.6341 18.1821 16.2424C19.6011 18.5337 22.2805 20.2643 22.2386 20.2173C22.1969 20.1697 19.2752 12.5117 19.3274 10.7433C17.8968 11.9674 15.2018 13.6752 14.2641 13.2163C13.3265 12.7574 15.5734 9.67325 15.5734 9.67325C15.5734 9.67325 13.406 10.7955 13.4859 10.4699C13.5657 10.1442 14.6068 8.02687 14.5456 8.05313C14.4843 8.0794 11.0506 9.49421 10.2834 9.16527C9.51609 8.83633 11.9956 4.63457 11.9956 4.63457L11.9958 4.63409Z" fill="#0C0029"/>
</svg>
