<svg width="17" height="19" viewBox="0 0 17 19" fill="none" xmlns="http://www.w3.org/2000/svg">
<path opacity="0.5" d="M7.48454 4.17836C7.47338 4.15226 7.45313 4.12812 7.42427 4.10468C7.14944 3.88105 6.08974 3.71716 4.6562 2.59321C3.07152 1.35053 2.16459 0.0599057 2.16459 0.0599057C2.16459 0.0599057 2.13953 2.12945 3.31192 3.86546C2.45587 3.76659 0.710172 3.27588 0.752558 3.4379C0.794944 3.59993 3.09299 6.19596 3.09299 6.19596C3.09299 6.19596 0.29754 6.43461 0.270589 6.63032C0.243204 6.82587 3.04884 8.15843 3.04884 8.15843C3.04884 8.15843 1.54537 10.156 1.57912 10.2512C1.61288 10.3463 3.65536 10.0703 4.21931 10.4878C4.7834 10.9048 5.37581 11.2982 3.0183 15.2691C5.87063 13.6494 6.82518 13.1235 7.28213 13.3334C7.73951 13.5435 8.20542 15.1536 7.93694 16.094C9.07143 15.121 9.36293 14.235 9.86815 14.5286C10.3734 14.8222 10.9529 16.9297 10.9529 16.9297C10.9529 16.9297 11.9715 14.8544 13.0279 14.5408C14.3013 16.5915 16.7181 18.1825 16.6804 18.1401C16.6429 18.0972 14.0354 11.2915 14.0912 9.73907C12.7903 10.7771 10.3427 12.2068 9.4962 11.7789C8.64968 11.351 10.6985 8.70015 10.6985 8.70015C10.6985 8.70015 8.7312 9.62925 8.80506 9.34522C8.87892 9.06118 9.83147 7.22813 9.77593 7.24959C9.72039 7.27106 6.60548 8.42391 5.91258 8.11471C5.21968 7.8055 7.48439 4.17878 7.48439 4.17878L7.48454 4.17836Z" fill="#0C0029"/>
</svg>
