<svg width="29" height="33" viewBox="0 0 29 33" fill="none" xmlns="http://www.w3.org/2000/svg">
<path opacity="0.5" d="M16.3163 7.38094C16.3355 7.33457 16.3708 7.29181 16.4211 7.25038C16.9007 6.85513 18.7577 6.57531 21.2595 4.58941C24.025 2.39372 25.6011 0.104835 25.6011 0.104835C25.6011 0.104835 25.6688 3.7921 23.6322 6.8714C25.1327 6.70508 28.1893 5.85091 28.1169 6.13907C28.0444 6.42723 24.043 11.0258 24.043 11.0258C24.043 11.0258 28.9494 11.483 28.999 11.832C29.0492 12.1807 24.143 14.5225 24.143 14.5225C24.143 14.5225 26.8032 18.0985 26.7451 18.2677C26.687 18.4368 23.1009 17.9216 22.1165 18.6589C21.1317 19.3954 20.0971 20.0894 24.2782 27.1908C19.2561 24.2725 17.5756 23.3246 16.7764 23.6933C15.9765 24.0623 15.1777 26.9255 15.6594 28.604C13.6582 26.8575 13.1367 25.2756 12.2538 25.7929C11.3709 26.3101 10.3784 30.0582 10.3784 30.0582C10.3784 30.0582 8.56779 26.3491 6.71119 25.7784C4.50098 29.4171 0.279701 32.2239 0.345318 32.1487C0.410661 32.0727 4.90658 19.9781 4.79087 17.2117C7.08467 19.0759 11.3947 21.6511 12.8747 20.8985C14.3547 20.146 10.7304 15.3998 10.7304 15.3998C10.7304 15.3998 14.192 17.0776 14.0591 16.5707C13.9263 16.0639 12.2343 12.7873 12.332 12.8262C12.4297 12.865 17.907 14.9546 19.1189 14.4117C20.3309 13.8688 16.3165 7.3817 16.3165 7.3817L16.3163 7.38094Z" fill="#0C0029"/>
</svg>
