<svg width="21" height="25" viewBox="0 0 21 25" fill="none" xmlns="http://www.w3.org/2000/svg">
<path opacity="0.14" d="M9.27907 18.9754C9.26587 19.0101 9.24114 19.0419 9.20551 19.0724C8.86623 19.3636 7.53396 19.5475 5.76278 21.0094C3.80486 22.6257 2.70427 24.3299 2.70427 24.3299C2.70427 24.3299 2.60137 21.5463 4.02177 19.2524C2.94439 19.3559 0.757279 19.9556 0.805214 19.7392C0.853148 19.5228 3.66511 16.1113 3.66511 16.1113C3.66511 16.1113 0.127547 15.6941 0.0867812 15.43C0.0454727 15.1662 3.54179 13.471 3.54179 13.471C3.54179 13.471 1.57482 10.7333 1.61416 10.6065C1.6535 10.4797 4.24172 10.9212 4.93934 10.3792C5.63716 9.83788 6.37155 9.32938 3.25838 3.90885C6.91532 6.18493 8.13857 6.92494 8.70826 6.65843C9.27849 6.39172 9.81127 4.24277 9.43992 2.96903C10.9058 4.31642 11.3043 5.51785 11.932 5.14048C12.5598 4.76311 13.2189 1.94921 13.2189 1.94921C13.2189 1.94921 14.5764 4.77485 15.9209 5.23279C17.458 2.51935 20.4545 0.463215 20.4084 0.519009C20.3625 0.575378 17.3048 9.63652 17.4287 11.7259C15.7506 10.2854 12.6111 8.2787 11.5571 8.82487C10.5031 9.37105 13.181 13.006 13.181 13.006C13.181 13.006 10.6653 11.689 10.7683 12.0735C10.8714 12.4579 12.1371 14.9554 12.0663 14.9247C11.9954 14.8939 8.02303 13.2365 7.15887 13.6284C6.29471 14.0203 9.27886 18.9748 9.27886 18.9748L9.27907 18.9754Z" fill="#0C0029"/>
</svg>
