<svg width="184" height="32" viewBox="0 0 184 32" fill="#fff5e5" xmlns="http://www.w3.org/2000/svg">
<g clip-path="url(#clip0_3004_58716)">
<path d="M4.06235 6.67273H16.0197L13.8039 21.3332H21.4319L24.8667 -9.15527e-05H5.12005L4.06235 6.67273Z" fill="##fff5e5"/>
<path d="M11.1722 10.6663H3.43483L0 31.9997H19.7162L20.7865 25.3286H8.95637L11.1722 10.6663Z" fill="#fff5e5"/>
<path d="M106.948 5.6113H101.209L97.6398 26.8531H107.713L108.566 21.7539H104.233L106.948 5.6113Z" fill="#fff5e5"/>
<path d="M119.683 19.3319C119.341 21.2469 118.883 21.8665 117.822 21.8665C116.99 21.8665 116.582 21.3596 116.625 20.3739C116.649 20.015 116.693 19.6577 116.757 19.3037L119.077 5.6113H113.31L110.91 19.8106C110.822 20.3346 110.77 20.8639 110.755 21.3948C110.594 25.0911 113.027 27.228 117.157 27.228C119.338 27.228 121.145 26.6078 122.576 25.3675C123.985 24.1342 124.919 22.4633 125.223 20.6344L127.772 5.61832H122.005L119.683 19.3319Z" fill="#fff5e5"/>
<path d="M135.299 12.5413C136.219 11.2176 137.338 10.5417 138.659 10.5417C139.577 10.5417 140.39 10.9641 141.099 11.809L142.11 5.75226C141.214 5.39998 140.258 5.22068 139.293 5.2242C136.165 5.2242 133.498 6.49153 131.321 9.02794C129.146 11.5344 127.974 14.718 127.806 18.5787C127.693 21.1696 128.29 23.2555 129.568 24.8607C130.848 26.4379 132.65 27.227 134.973 27.2282C136.007 27.2282 137.195 26.9741 138.537 26.466L139.925 20.3248C137.578 22.1571 135.43 22.0427 134.457 20.6909C133.971 19.9868 133.756 19.0011 133.813 17.6774C133.905 15.5846 134.41 13.8667 135.299 12.5413Z" fill="#fff5e5"/>
<path d="M153.632 5.6113L148.7 14.7114L150.36 5.6113H144.621L141.054 26.8531H146.792L148.311 17.0489L150.466 26.8531H156.663L153.384 15.8661L159.714 5.6113H153.632Z" fill="#fff5e5"/>
<path d="M170.646 5.6113L169.043 8.79545C168.666 9.55585 168.157 10.6829 167.518 12.1767C167.445 11.033 167.304 9.89446 167.093 8.76728L166.6 5.6113H160.607L163.834 17.8674L162.323 26.8443H168.09L169.601 17.8674L176.621 5.6113H170.646Z" fill="#fff5e5"/>
<path d="M42.8331 21.3542H38.5001L41.2143 5.21161H35.4758L31.9066 26.4552H41.978L42.8331 21.3542Z" fill="#fff5e5"/>
<path d="M55.3911 21.3542H50.427L50.9702 18.1155H55.4179L56.2318 13.2979H51.7841L52.3201 10.1982H57.2555L58.1052 5.21161H47.4028L43.8335 26.4552H54.5377L55.3911 21.3542Z" fill="#fff5e5"/>
<path d="M59.5484 26.4552H65.2868L68.0297 10.3108H71.33L72.1834 5.21161H59.9607L59.1056 10.3108H62.2625L59.5484 26.4552Z" fill="#fff5e5"/>
<path d="M80.6522 7.21311C79.0908 8.81839 78.2661 10.6226 78.1765 12.6503C78.0922 14.5865 78.8613 16.0316 80.7634 17.8058L81.5647 18.5381C82.0882 19.0168 82.3535 19.5238 82.332 20.0026C82.2908 20.9319 81.4876 21.5867 80.369 21.5867C79.0782 21.5867 77.9918 20.8246 77.1134 19.2756L75.9894 25.9255C77.4576 26.5169 78.8201 26.8267 80.0535 26.8267C82.2639 26.8267 84.1337 26.0382 85.7238 24.4593C87.2981 22.9045 88.2103 20.8194 88.2748 18.6278C88.3537 16.8254 87.5075 15.1902 85.765 13.7258L84.9547 13.0411C84.3183 12.513 84.0243 11.999 84.0476 11.4921C84.0781 10.788 84.9135 10.054 85.8027 10.054C86.9787 10.054 88.0866 10.9552 88.8001 12.3933L89.8865 5.91234C88.6913 5.1953 87.318 4.8153 85.9174 4.814C83.9705 4.81752 82.2155 5.60608 80.6522 7.21311Z" fill="#fff5e5"/>
<path d="M79.2144 5.21161H75.1521L72.9919 10.3249H76.4948L79.2144 5.21161Z" fill="#fff5e5"/>
<path d="M178.244 5.58331L176.336 20.7789H182.093L184 5.58331H178.244Z" fill="#fff5e5"/>
<path d="M178.921 22.5054C178.025 22.5054 177.225 22.8574 176.514 23.5615C176.176 23.8709 175.906 24.2449 175.721 24.6605C175.536 25.0762 175.44 25.5246 175.438 25.9782C175.432 26.3303 175.498 26.6799 175.631 27.0066C175.765 27.3333 175.964 27.6305 176.216 27.8806C176.469 28.1307 176.77 28.3288 177.101 28.463C177.433 28.5973 177.788 28.6651 178.147 28.6625C178.601 28.6634 179.052 28.5735 179.47 28.3983C179.888 28.2231 180.265 27.9662 180.579 27.6433C180.907 27.3284 181.168 26.9525 181.347 26.5376C181.525 26.1227 181.618 25.677 181.619 25.2266C181.628 23.6865 180.479 22.5054 178.921 22.5054Z" fill="#fff5e5"/>
</g>
<defs>
<clipPath id="clip0_3004_58716">
<rect width="184" height="32" fill="fff5e5"/>
</clipPath>
</defs>
</svg>
